<?xml version="1.0" encoding="utf-8"?><!DOCTYPE svg PUBLIC "-//W3C//DTD SVG 1.1//EN" "http://www.w3.org/Graphics/SVG/1.1/DTD/svg11.dtd"><svg version="1.1" focusable="false" xmlns="http://www.w3.org/2000/svg" x="0px" y="0px" viewBox="0 0 595.279 841.891" xml:space="preserve"><path fill="#000000" d="M534.089,299.699c0.378,5.288,0.378,10.577,0.378,15.864c0,161.284-122.757,347.121-347.12,347.121 c-69.122,0-133.333-20.02-187.347-54.769c9.821,1.133,19.263,1.511,29.462,1.511c57.034,0,109.537-19.263,151.464-52.124 c-53.636-1.134-98.584-36.262-114.07-84.609c7.555,1.133,15.108,1.889,23.041,1.889c10.954,0,21.908-1.512,32.105-4.154 C66.1,459.094,24.173,409.992,24.173,350.69v-1.51c16.241,9.065,35.129,14.731,55.146,15.485 c-32.861-21.908-54.391-59.301-54.391-101.605c0-22.663,6.042-43.437,16.619-61.567c60.057,74.032,150.331,122.379,251.558,127.667 c-1.888-9.065-3.021-18.507-3.021-27.95c0-67.234,54.392-122.002,122.002-122.002c35.127,0,66.855,14.731,89.141,38.527 c27.572-5.288,54.013-15.486,77.432-29.461c-9.066,28.329-28.329,52.125-53.636,67.233c24.552-2.643,48.349-9.443,70.255-18.885 C578.661,260.794,557.885,282.323,534.089,299.699L534.089,299.699z"/></svg>